<svg width="38" height="20" viewBox="0 0 38 20" fill="none" xmlns="http://www.w3.org/2000/svg">
  <path d="M0.185547 17.7181C0.274609 17.8456 0.838672 18.3826 1.41758 18.906C2.00391 19.4295 2.57539 19.8859 2.68672 19.9262C2.80547 19.9664 3.01328 20 3.1543 20C3.29531 20 3.50312 19.9664 3.61445 19.9329C3.7332 19.8926 7.23633 16.7718 11.4074 13L19 6.14094C30.7637 16.7718 34.2668 19.8926 34.3855 19.9329C34.4969 19.9664 34.7047 20 34.8457 20C34.9867 20 35.1945 19.9664 35.3059 19.9262C35.4246 19.8859 35.9961 19.4295 36.5824 18.906C37.1613 18.3825 37.7254 17.8389 37.8219 17.7047C37.9555 17.5168 38 17.3557 38 17.094L38 16.745C23.8242 3.91946 19.616 0.147651 19.4973 0.093959C19.3859 0.0402671 19.1633 -8.37654e-07 19 -8.30516e-07C18.8367 -8.23379e-07 18.6141 0.0402671 18.5027 0.093959C18.384 0.147651 14.1758 3.91946 9.15117 8.4698L-1.42282e-07 16.745C0.00742176 17.3826 0.051953 17.5436 0.185547 17.7181Z" fill="white" />
</svg>