<svg width="20" height="20" viewBox="0 0 20 20" fill="none" xmlns="http://www.w3.org/2000/svg">
  <g clip-path="url(#clip0_224_10298)">
    <path d="M0.484327 0.166667C0.346415 0.253623 0.179469 0.456522 0.099625 0.615942C0.0125228 0.804348 -0.0165111 0.971014 0.012523 1.08696C0.0415571 1.19565 1.89248 3.0942 4.43296 5.63768L8.80259 10C0.680307 18.1087 0.0488156 18.7681 0.012523 18.9855C-0.0165111 19.1522 0.00526448 19.3188 0.0851082 19.4783C0.150435 19.6014 0.295605 19.7754 0.419 19.8551C0.542395 19.9348 0.76015 20 0.90532 20C1.17389 20 1.33357 19.8478 5.59432 15.5942L10.0002 11.1957C18.6669 19.8478 18.8266 20 19.0879 20C19.2403 20 19.4581 19.9348 19.5815 19.8551C19.6976 19.7754 19.8501 19.6014 19.9154 19.4783C19.9952 19.3188 20.017 19.1522 19.988 18.9855C19.9517 18.7681 19.3202 18.1087 15.5748 14.3623L11.1979 10C19.3202 1.8913 19.9517 1.23188 19.988 1.01449C20.017 0.847826 19.9952 0.68116 19.9154 0.528986C19.8501 0.398551 19.6976 0.224638 19.5815 0.144928C19.4654 0.0652174 19.2403 0 19.0952 0C18.8339 0 18.6597 0.166667 14.4134 4.4058L10.0002 8.80435C3.27886 2.10145 1.25373 0.123188 1.15937 0.07971C1.07227 0.0362318 0.941613 0 0.869028 0C0.796443 0 0.622239 0.072464 0.484327 0.166667Z" fill="white" fill-opacity="0.4" />
  </g>
  <defs>
    <clipPath id="clip0_224_10298">
      <rect width="20" height="20" fill="white" />
    </clipPath>
  </defs>
</svg>